<?xml version="1.0" encoding="utf-8"?>
<svg viewBox="271.876 168.733 25.528 8.986" xmlns="http://www.w3.org/2000/svg">
  <path d="M 294.408 168.733 L 294.408 174 C 294.114 173.83 293.774 173.725 293.41 173.725 C 292.307 173.725 291.413 174.619 291.413 175.722 C 291.413 176.825 292.307 177.719 293.41 177.719 C 294.513 177.719 295.407 176.825 295.407 175.722 L 295.407 170.729 L 297.404 170.729 L 297.404 168.733 L 294.408 168.733 Z M 293.41 176.72 C 292.861 176.72 292.411 176.271 292.411 175.722 C 292.411 175.173 292.861 174.723 293.41 174.723 C 293.959 174.723 294.408 175.173 294.408 175.722 C 294.408 176.271 293.959 176.72 293.41 176.72 Z" style="fill: rgb(255, 255, 255);"/>
  <path d="M 278.943 170.626 L 278.943 175.338 L 273.054 175.338 L 273.054 170.626 L 278.943 170.626 M 279.531 169.449 L 272.465 169.449 C 272.141 169.449 271.876 169.714 271.876 170.037 L 271.876 175.927 C 271.876 176.25 272.141 176.515 272.465 176.515 L 279.531 176.515 C 279.855 176.515 280.12 176.25 280.12 175.927 L 280.12 173.865 L 282.476 176.221 L 282.476 169.743 L 280.12 172.099 L 280.12 170.037 C 280.12 169.714 279.855 169.449 279.531 169.449 Z" style="fill: rgb(255, 255, 255);"/>
  <path d="M 289.965 172.633 L 285.992 172.633 L 287.411 171.214 L 287.051 170.856 L 285.019 172.887 L 287.051 174.919 L 287.409 174.561 L 285.992 173.141 L 289.965 173.141 L 289.965 172.633 Z" style="fill: rgb(255, 255, 255);" transform="matrix(-1, 0, 0, -1, 574.984009, 345.774994)"/>
</svg>