<?xml version="1.0" encoding="UTF-8" standalone="no"?><!-- Generator: Gravit.io --><svg xmlns="http://www.w3.org/2000/svg" xmlns:xlink="http://www.w3.org/1999/xlink" style="isolation:isolate" viewBox="41.154 424.314 39 26" width="39pt" height="26pt"><path d=" M 71.487 434.064 L 71.487 426.481 C 71.487 425.289 70.512 424.314 69.321 424.314 L 43.321 424.314 C 42.129 424.314 41.154 425.289 41.154 426.481 L 41.154 448.148 C 41.154 449.339 42.129 450.314 43.321 450.314 L 69.321 450.314 C 70.512 450.314 71.487 449.339 71.487 448.148 L 71.487 440.564 L 80.154 449.231 L 80.154 425.398 L 71.487 434.064 Z  M 67.154 430.099 L 67.154 445.981 L 45.487 445.981 L 45.487 428.648 L 67.154 428.648 L 67.154 430.099 Z  M 50.059 435.386 L 58.487 443.814 L 66.656 435.603 L 64.966 433.891 L 58.487 440.413 L 51.749 433.696 L 57.274 433.696 L 57.274 431.291 L 47.654 431.291 L 47.654 440.911 L 50.059 440.911 L 50.059 435.386 Z " fill="rgb(255,255,255)"/></svg>