<?xml version="1.0" encoding="UTF-8" standalone="no"?><!-- Generator: Gravit.io --><svg xmlns="http://www.w3.org/2000/svg" xmlns:xlink="http://www.w3.org/1999/xlink" style="isolation:isolate" viewBox="734.786 527.264 19 14" width="19pt" height="14pt"><path d=" M 753.786 527.264 L 748.786 527.264 L 748.786 535.444 C 748.476 535.334 748.136 535.264 747.786 535.264 C 746.126 535.264 744.786 536.604 744.786 538.264 C 744.786 539.924 746.126 541.264 747.786 541.264 C 749.446 541.264 750.786 539.924 750.786 538.264 L 750.786 529.264 L 753.786 529.264 L 753.786 527.264 Z  M 746.786 527.264 L 734.786 527.264 L 734.786 529.264 L 746.786 529.264 L 746.786 527.264 Z  M 746.786 531.264 L 734.786 531.264 L 734.786 533.264 L 746.786 533.264 L 746.786 531.264 Z  M 742.786 535.264 L 734.786 535.264 L 734.786 537.264 L 742.786 537.264 L 742.786 535.264 Z  M 746.786 538.264 C 746.786 537.714 747.236 537.264 747.786 537.264 C 748.336 537.264 748.786 537.714 748.786 538.264 C 748.786 538.814 748.336 539.264 747.786 539.264 C 747.236 539.264 746.786 538.814 746.786 538.264 Z " fill="rgb(255,255,255)"/></svg>